# xmcd
#
# Track frame offsets:
#	150
#	37715
#	59322
#	77490
#	91060
#	111067
#	126297
#	140927
#	160142
#	175357
#
# Disc length: 2554 seconds
#
# Revision: 1
# Processed by: cddbd v1.5PL3 Copyright (c) Steve Scherf et al.
# Submitted via: CDex 1.50Beta5
#
DISCID=7b09f80a
DTITLE=Various Artist - 〈格闘音楽大全〉 プロレスQ 10番勝負
DYEAR=1900
DGENRE=Other
TTITLE0=SPECTRUM/Sunrise
TTITLE1=SWS/Revolution
TTITLE2=SWS/パライストラ
TTITLE3=SWS/道場・激
TTITLE4=ヘッド・ロックス/プリンス・トンガのテーマ
TTITLE5=MUSASHI/YAMATO Part.4
TTITLE6=清水保光/魅魔 THE SENSATION
TTITLE7=ROSEMARY BUTLER/汚れた英雄
TTITLE8=おぼたけし/傷だらけの栄光
TTITLE9=ザ・スープレックス&アブドーラ・ザ・ブッチャー/ザ・ブッチャー
EXTD=
EXTT0=
EXTT1=
EXTT2=
EXTT3=
EXTT4=
EXTT5=
EXTT6=
EXTT7=
EXTT8=
EXTT9=
PLAYORDER=
